<svg width="129" height="25" viewBox="0 0 129 25" fill="none" xmlns="http://www.w3.org/2000/svg">
<path d="M6.325 22.5L7.95 15.475L2.5 10.75L9.7 10.125L12.5 3.5L15.3 10.125L22.5 10.75L17.05 15.475L18.675 22.5L12.5 18.775L6.325 22.5Z" fill="#F6E33A"/>
<path d="M32.325 22.5L33.95 15.475L28.5 10.75L35.7 10.125L38.5 3.5L41.3 10.125L48.5 10.75L43.05 15.475L44.675 22.5L38.5 18.775L32.325 22.5Z" fill="#F6E33A"/>
<path d="M58.325 22.5L59.95 15.475L54.5 10.75L61.7 10.125L64.5 3.5L67.3 10.125L74.5 10.75L69.05 15.475L70.675 22.5L64.5 18.775L58.325 22.5Z" fill="#F6E33A"/>
<path d="M84.325 22.5L85.95 15.475L80.5 10.75L87.7 10.125L90.5 3.5L93.3 10.125L100.5 10.75L95.05 15.475L96.675 22.5L90.5 18.775L84.325 22.5Z" fill="#F6E33A"/>
<path d="M110.325 22.5L111.95 15.475L106.5 10.75L113.7 10.125L116.5 3.5L119.3 10.125L126.5 10.75L121.05 15.475L122.675 22.5L116.5 18.775L110.325 22.5Z" fill="#F6E33A"/>
</svg>
